<svg xmlns="http://www.w3.org/2000/svg" xmlns:xlink="http://www.w3.org/1999/xlink" preserveAspectRatio="xMidYMid" width="8000" height="8000" viewBox="0 0 8000 8000">
  <defs>
    <style>
      .cls-1 {
        fill: #363636;
      }

      .cls-2 {
        fill: #7BD944;
      }

      .cls-2, .cls-3, .cls-4, .cls-5, .cls-9 {
        fill-rule: evenodd;
      }

      .cls-3 {
        fill: #5FC920;
      }

      .cls-4, .cls-5, .cls-6, .cls-7, .cls-8 {
        stroke: #fff;
        fill: none;
      }

      .cls-4 {
        stroke-linejoin: round;
        stroke-width: 64px;
      }

      .cls-5 {
        stroke-width: 67px;
      }

      .cls-6 {
        stroke-width: 50px;
      }

      .cls-7 {
        stroke-width: 33px;
      }

      .cls-8 {
        stroke-width: 17px;
      }

      .cls-10, .cls-9 {
        fill: #fff;
      }
    </style>
  </defs>
  <ellipse cx="4012" cy="4008" rx="2020" ry="3836" class="cls-1"/>
  <g>
    <path d="M4014.569,7325.238 C2815.531,6289.299 2444.396,5791.657 2432.384,4686.244 C2411.726,2785.216 3519.331,1467.041 3759.458,1335.141 C3857.487,1003.205 3800.303,608.040 3837.064,691.294 C3996.555,871.792 4056.490,1324.482 4318.226,1443.741 C4790.242,1658.813 4856.273,2320.353 4985.643,2700.405 C5097.029,3027.624 5353.579,3745.409 5528.890,4694.001 C5691.998,5576.563 5382.778,5934.553 4752.823,6726.383 C4362.318,6963.147 4257.192,6989.604 4014.569,7325.238 Z" class="cls-2"/>
    <path d="M4077.031,6595.992 C3215.556,5852.076 2948.906,5494.717 2940.276,4700.911 C2925.434,3335.770 3721.216,2389.180 3893.740,2294.461 C3964.172,2056.096 3923.087,1772.326 3949.499,1832.110 C4064.088,1961.727 4107.150,2286.807 4295.199,2372.447 C4634.329,2526.893 4681.770,3001.949 4774.719,3274.867 C4854.747,3509.845 5039.071,4025.291 5165.026,4706.482 C5282.215,5340.256 5060.050,5597.331 4607.445,6165.949 C4326.878,6335.971 4251.348,6354.970 4077.031,6595.992 Z" class="cls-3"/>
    <path d="M4014.569,7325.238 C2815.531,6289.299 2444.396,5791.657 2432.384,4686.244 C2411.726,2785.216 3519.331,1467.041 3759.458,1335.141 C3857.487,1003.205 3800.303,608.040 3837.064,691.294 C3996.555,871.792 4056.490,1324.482 4318.226,1443.741 C4790.242,1658.813 4856.273,2320.353 4985.643,2700.405 C5097.029,3027.624 5353.579,3745.409 5528.890,4694.001 C5691.998,5576.563 5382.778,5934.553 4752.823,6726.383 C4362.318,6963.147 4257.192,6989.604 4014.569,7325.238 Z" class="cls-4"/>
  </g>
  <g>
    <path d="M5012.000,2252.000 C5012.000,2819.749 4560.703,3280.000 4004.000,3280.000 C3676.383,3280.000 3385.284,3120.593 3201.173,2873.693 C3072.433,2701.049 2996.000,2485.631 2996.000,2252.000 C2996.000,1684.251 3447.297,1224.000 4004.000,1224.000 C4036.072,1224.000 4067.789,1225.546 4099.096,1228.534 C4611.199,1277.407 5012.000,1716.960 5012.000,2252.000 Z" class="cls-5"/>
    <g>
      <ellipse cx="4012" cy="4000" rx="2020" ry="3872" class="cls-6"/>
      <ellipse cx="4014" cy="3998" rx="1930" ry="3770" class="cls-7"/>
      <ellipse cx="4014" cy="3998" rx="1810" ry="3662" class="cls-8"/>
    </g>
    <g>
      <path d="M3533.000,6640.000 L3431.000,6053.000 L3897.000,1665.000 L3533.000,6640.000 Z" class="cls-9"/>
      <path d="M4012.000,1669.000 L3933.000,7245.000 C3933.000,7245.000 4006.471,7301.286 4015.000,7301.000 C4020.579,7300.813 4096.000,7214.000 4096.000,7214.000 L4096.000,7115.000 L4012.000,1669.000 Z" class="cls-9"/>
      <path d="M4128.000,1667.000 L4499.000,6636.000 L4600.000,6060.000 L4128.000,1667.000 Z" class="cls-9"/>
    </g>
    <g>
      <ellipse cx="3847.5" cy="1574.5" rx="56.5" ry="54.5" class="cls-10"/>
      <ellipse cx="4012.5" cy="1540.5" rx="56.5" ry="54.5" class="cls-10"/>
      <ellipse cx="4179.5" cy="1574.5" rx="56.5" ry="54.5" class="cls-10"/>
    </g>
  </g>
</svg>
